<svg width="126" height="24" viewBox="0 0 126 24" fill="none" xmlns="http://www.w3.org/2000/svg">
<g clip-path="url(#clip0_105_13)">
<path d="M11.782 0C8.37963 0 0 8.53443 0 11.9999C0 15.4654 8.37963 24 11.782 24C15.1844 24 23.5642 15.4653 23.5642 11.9999C23.5642 8.53458 15.1845 0 11.782 0ZM9.94598 18.8619C8.51124 18.4637 4.65378 11.5912 5.04481 10.1299C5.43584 8.66856 12.1834 4.73984 13.6181 5.1381C15.0529 5.5363 18.9104 12.4087 18.5194 13.87C18.1283 15.3314 11.3807 19.2602 9.94598 18.8619Z" fill="#836EF9"/>
<path d="M40.0336 14.6595V14.6551L33.339 2.07907C33.2072 1.83152 32.843 1.89081 32.7935 2.16785L29.4595 20.8454C29.4268 21.0284 29.5649 21.1969 29.7476 21.1969H32.3271C32.4686 21.1969 32.5899 21.0938 32.6151 20.952L34.5567 10.054L39.7754 20.1871C39.8851 20.4 40.1843 20.4 40.294 20.1871L45.5127 10.054L47.4543 20.952C47.4795 21.0938 47.6008 21.1969 47.7423 21.1969H50.3218C50.5045 21.1969 50.6425 21.0284 50.6099 20.8454L47.2759 2.16785C47.2264 1.89081 46.8622 1.83152 46.7304 2.07907L40.0336 14.6595Z" fill="black"/>
<path d="M61.4561 2.43115C56.1457 2.43115 51.9858 6.63409 51.9858 12.0006C51.9858 17.3672 56.1457 21.5725 61.4561 21.5725C66.7526 21.5725 70.9022 17.3683 70.9022 12.0006C70.9022 6.63292 66.7526 2.43115 61.4561 2.43115ZM61.4561 18.3682C57.9931 18.3682 55.28 15.5709 55.28 12.0006C55.28 8.43034 57.9931 5.63539 61.4561 5.63539C64.9052 5.63539 67.608 8.43151 67.608 12.0006C67.608 15.5698 64.9052 18.3682 61.4561 18.3682Z" fill="black"/>
<path d="M85.4983 14.1958L74.394 2.02259C74.2129 1.82406 73.8867 1.95457 73.8867 2.22555V20.899C73.8867 21.0637 74.0178 21.1972 74.1795 21.1972H76.864C77.0257 21.1972 77.1567 21.0637 77.1567 20.899V9.78468L88.2365 21.9808C88.4174 22.18 88.7442 22.0496 88.7442 21.7783V3.10486C88.7442 2.94017 88.6131 2.80667 88.4514 2.80667H85.7911C85.6294 2.80667 85.4983 2.94017 85.4983 3.10486V14.1958Z" fill="black"/>
<path d="M91.5906 21.1971H94.4731C94.5873 21.1971 94.691 21.1295 94.7389 21.024L96.8982 16.261H103.803L105.914 21.0217C105.961 21.1285 106.066 21.1971 106.181 21.1971H109.308C109.524 21.1971 109.666 20.9672 109.572 20.7692L100.713 2.09692C100.607 1.87232 100.292 1.87232 100.186 2.09692L91.327 20.7692C91.2331 20.9672 91.3747 21.1971 91.5906 21.1971ZM98.2519 13.3058L100.398 8.56257L102.504 13.3058H98.2519Z" fill="black"/>
<path d="M116.57 2.80615H112.14C111.978 2.80615 111.847 2.93966 111.847 3.10434V20.8985C111.847 21.0632 111.978 21.1967 112.14 21.1967H116.57C122.061 21.1967 125.474 17.6732 125.474 12.0003C125.474 6.32732 122.061 2.80615 116.57 2.80615ZM116.57 18.0416H115.141V5.93673H116.57C120.135 5.93673 122.18 8.14695 122.18 12.0003C122.18 15.8395 120.135 18.0416 116.57 18.0416Z" fill="black"/>
</g>
<defs>
<clipPath id="clip0_105_13">
<rect width="126" height="24" fill="white"/>
</clipPath>
</defs>
</svg>
