<svg width="36" height="36" viewBox="0 0 36 36" fill="none" xmlns="http://www.w3.org/2000/svg">
<g clip-path="url(#clip0_104_2)">
<path d="M32.8522 11.997L27.6154 8.39025L24.0086 3.15563C23.3385 2.18243 22.4419 1.3867 21.3959 0.83698C20.35 0.28726 19.1861 2.06022e-05 18.0045 0C16.8229 2.06022e-05 15.659 0.28726 14.6131 0.83698C13.5671 1.3867 12.6705 2.18243 12.0004 3.15563L8.3925 8.39025L3.15675 11.997C2.18267 12.6662 1.38608 13.5624 0.835728 14.6083C0.285372 15.6541 -0.00221634 16.8182 -0.00221634 18C-0.00221634 19.1818 0.285372 20.3459 0.835728 21.3917C1.38608 22.4376 2.18267 23.3338 3.15675 24.003L8.3925 27.6097L12.0004 32.8444C12.6705 33.8176 13.5671 34.6133 14.6131 35.163C15.659 35.7127 16.8229 36 18.0045 36C19.1857 35.9981 20.3489 35.71 21.3946 35.1604C22.4402 34.6109 23.3371 33.8162 24.0086 32.8444L27.5827 27.6514L32.8522 24.0109C33.8232 23.3393 34.6167 22.4423 35.165 21.3968C35.7132 20.3513 35.9997 19.1884 36 18.0079C36.0004 16.8264 35.7133 15.6625 35.1633 14.6169C34.6133 13.5712 33.817 12.6751 32.8433 12.006L32.8522 11.997ZM25.6781 18.1508C25.1528 19.2859 23.8162 19.0935 22.7475 19.3433C20.2005 19.9373 19.9328 27.0079 19.3163 28.737C18.8393 30.4065 17.1607 30.1646 16.7602 28.737C16.0504 27.0158 15.867 20.9059 14.2717 19.7449C13.4359 19.1351 11.457 19.4445 10.6976 18.6761C9.94612 17.9167 9.91237 16.731 10.6717 15.9626L16.6342 10.0024C17 9.63731 17.4956 9.43228 18.0124 9.43228C18.5291 9.43228 19.0248 9.63731 19.3905 10.0024L25.353 15.9626C25.9211 16.5308 26.0123 17.4319 25.6871 18.1417L25.6781 18.1508Z" fill="url(#paint0_linear_104_2)"/>
</g>
<defs>
<linearGradient id="paint0_linear_104_2" x1="7.48912" y1="7.48912" x2="28.5109" y2="28.5165" gradientUnits="userSpaceOnUse">
<stop offset="0.18" stop-color="#5C34EA"/>
<stop offset="0.88" stop-color="#C9A0FF"/>
</linearGradient>
<clipPath id="clip0_104_2">
<rect width="36" height="36" fill="white"/>
</clipPath>
</defs>
</svg>
